<svg width="32" height="32" viewBox="0 0 32 32" fill="none" xmlns="http://www.w3.org/2000/svg">
<path d="M16 11C16 8.25 18.3125 5.9625 21.0625 6C22.0256 6.01112 22.9649 6.30014 23.7676 6.83234C24.5704 7.36454 25.2023 8.11725 25.5875 9H30L25.9625 13.0375C25.7019 17.0932 23.9066 20.8975 20.9415 23.6768C17.9764 26.4562 14.0641 28.002 10 28C6 28 5 26.5 5 26.5C5 26.5 9 25 11 22C11 22 3 18 5 7C5 7 10 12 16 13V11Z" stroke="white" stroke-width="2" stroke-linecap="round" stroke-linejoin="round"/>
</svg>
